G04*
G04 #@! TF.GenerationSoftware,Altium Limited,Altium Designer,21.6.4 (81)*
G04*
G04 Layer_Physical_Order=1*
G04 Layer_Color=255*
%FSLAX25Y25*%
%MOIN*%
G70*
G04*
G04 #@! TF.SameCoordinates,82D07BB3-39A6-4B9F-A2C0-6B90CFECE1EA*
G04*
G04*
G04 #@! TF.FilePolarity,Positive*
G04*
G01*
G75*
%ADD15C,0.01000*%
%ADD16R,0.01693X0.05000*%
%ADD26R,0.12000X0.12000*%
%ADD27C,0.04016*%
%ADD28R,0.05500X0.05500*%
%ADD29C,0.05500*%
%ADD30C,0.09409*%
%ADD31C,0.05189*%
%ADD32C,0.25000*%
%ADD33C,0.02000*%
D15*
X-13196Y33020D02*
Y33290D01*
X-14500Y31716D02*
X-13196Y33020D01*
X-5796Y-1709D02*
X10904D01*
X-5811Y-1725D02*
X-5796Y-1709D01*
X-14500Y10500D02*
Y31716D01*
X-16209Y36790D02*
X-11196D01*
X-18500Y34500D02*
X-16209Y36790D01*
X71604Y22896D02*
Y29896D01*
X69000Y32500D02*
X71604Y29896D01*
X51000Y28398D02*
Y35229D01*
X51500Y35729D02*
Y36000D01*
X51000Y35229D02*
X51500Y35729D01*
X23291Y44500D02*
X31000Y36790D01*
X18142Y44500D02*
X23291D01*
X20500Y42000D02*
X28500Y34000D01*
Y28398D02*
Y34000D01*
X3504Y29862D02*
X18142Y44500D01*
X40000Y39500D02*
X43500Y36000D01*
Y28398D02*
Y36000D01*
X46000Y28398D02*
Y34080D01*
X47574Y35655D01*
Y35925D01*
X18500Y26744D02*
Y28398D01*
X15000Y23500D02*
X15256D01*
X18500Y26744D01*
X18004Y18595D02*
X23873D01*
X24535Y19000D02*
X29626Y24091D01*
X23500Y21500D02*
X23500Y21500D01*
X23500Y21500D02*
Y28398D01*
X23873Y18595D02*
X24278Y19000D01*
X23500Y28398D02*
X23500Y28398D01*
X24278Y19000D02*
X24535D01*
X29626Y24091D02*
X33500D01*
X21000Y22487D02*
Y28398D01*
X19108Y20595D02*
X21000Y22487D01*
X67904Y-3610D02*
X76404Y4891D01*
X64704Y-11209D02*
Y-3109D01*
X63500Y-1905D02*
X64704Y-3109D01*
X62204Y-13710D02*
Y-5310D01*
X63500Y-1905D02*
Y603D01*
X47675Y-17175D02*
Y-16904D01*
X48500Y-16079D01*
Y603D01*
X44000Y-26500D02*
Y-17313D01*
X43500Y-12410D02*
X43504Y-12414D01*
X43500Y-12410D02*
Y603D01*
X44000Y-17313D02*
X46004Y-15310D01*
X41000Y-27005D02*
Y-13713D01*
X46004Y-15310D02*
Y-6409D01*
X43504Y-13810D02*
Y-12414D01*
X40104Y-14609D02*
X41000Y-13713D01*
Y603D01*
X32191Y-15051D02*
X34004Y-13238D01*
X32191Y-16309D02*
Y-15051D01*
X32000Y-16500D02*
X32191Y-16309D01*
X4500Y-27500D02*
X7914D01*
X18904Y-16510D01*
X21250Y-23580D02*
X22500Y-24830D01*
Y-27500D02*
Y-24830D01*
X21250Y-23580D02*
Y-20432D01*
X51000Y-26729D02*
Y603D01*
X50000Y-27729D02*
X51000Y-26729D01*
X33000Y-31500D02*
Y-22736D01*
X34004Y-21732D02*
Y-13238D01*
X33000Y-22736D02*
X34004Y-21732D01*
X44809Y-29309D02*
X45000Y-29500D01*
X44809Y-29309D02*
Y-27309D01*
X44000Y-26500D02*
X44809Y-27309D01*
X41000Y-29035D02*
X44957Y-32992D01*
X65043D01*
X41000Y-29035D02*
Y-27005D01*
X65043Y-32992D02*
X72374Y-25661D01*
X78404Y-11009D02*
Y36990D01*
X53500Y-27729D02*
X54771Y-29000D01*
X72374Y-25661D02*
Y-17039D01*
X54771Y-29000D02*
X65500D01*
X72374Y-17039D02*
X78404Y-11009D01*
X53500Y-27729D02*
Y603D01*
X-11196Y36790D02*
X-496Y26090D01*
X61000Y14500D02*
Y18586D01*
X61710Y19296D01*
X68004D01*
X71604Y22896D01*
X7204Y22702D02*
Y22886D01*
Y22702D02*
X9382Y20524D01*
Y14791D02*
Y20524D01*
X5204Y10613D02*
X9382Y14791D01*
X5204Y4384D02*
Y10613D01*
X26000Y28398D02*
Y31791D01*
X25000Y32790D02*
X26000Y31791D01*
X12810Y32790D02*
X25000D01*
X11382Y31362D02*
X12810Y32790D01*
X11382Y11690D02*
Y31362D01*
X8882Y9190D02*
X11382Y11690D01*
X31000Y28398D02*
Y36790D01*
Y59995D01*
X29504Y61490D02*
X31000Y59995D01*
X-11896Y61490D02*
X29504D01*
X-29896Y43490D02*
X-11896Y61490D01*
X-29896Y19091D02*
Y43490D01*
X3504Y19290D02*
X6804Y15991D01*
X3504Y19290D02*
Y29862D01*
X36000Y23591D02*
Y28398D01*
X31367Y18957D02*
X36000Y23591D01*
X27771Y18957D02*
X31367D01*
X25504Y16691D02*
X27771Y18957D01*
X38500Y-12524D02*
Y603D01*
X36780Y-14245D02*
X38500Y-12524D01*
X36780Y-15722D02*
Y-14245D01*
X-32396Y9490D02*
X-15996Y-6910D01*
X-32396Y9490D02*
Y52091D01*
X-20496Y63990D01*
X32104D01*
X35304Y60790D01*
Y37387D02*
Y60790D01*
Y37387D02*
X38500Y34190D01*
Y28398D02*
Y34190D01*
X-63374Y55008D02*
X-61273Y57109D01*
Y58790D01*
X-54073Y65991D01*
X49404D01*
X78404Y36990D01*
X23500Y-6931D02*
Y603D01*
X15882Y-14549D02*
X23500Y-6931D01*
X15882Y-15932D02*
Y-14549D01*
X18904Y-16510D02*
Y-14777D01*
X26000Y-7681D01*
Y603D01*
X24313Y-16409D02*
X31000Y-9723D01*
Y603D01*
X28480Y-16409D02*
Y-15933D01*
X33500Y-10914D01*
Y603D01*
X58500Y-15733D02*
X59976Y-17210D01*
X58500Y-15733D02*
Y603D01*
X21000Y14500D02*
X21310Y14190D01*
X30690D01*
X31000Y14500D01*
X8204Y-18409D02*
Y-13209D01*
X18500Y-2913D01*
Y603D01*
X14688Y20595D02*
X19108D01*
X13382Y19288D02*
X14688Y20595D01*
X13382Y10168D02*
Y19288D01*
X12104Y8890D02*
X13382Y10168D01*
X12104Y3513D02*
Y8890D01*
X9933Y1342D02*
X12104Y3513D01*
X3854Y1342D02*
X9933D01*
X2405Y2791D02*
X3854Y1342D01*
X2405Y2791D02*
Y9590D01*
X-63374Y45008D02*
X-59096Y49286D01*
Y57758D01*
X-57596Y59258D01*
X-44663D01*
X-39696Y54290D01*
Y8790D02*
Y54290D01*
Y8790D02*
X-21196Y-9709D01*
X7604D01*
X16104Y-1209D01*
Y3791D01*
X17204Y4891D01*
X29900D01*
X31000Y3791D01*
Y603D02*
Y3791D01*
X33500Y24091D02*
Y28398D01*
X16204Y16795D02*
X18004Y18595D01*
X16204Y8991D02*
Y16795D01*
X14104Y6891D02*
X16204Y8991D01*
X14104Y1491D02*
Y6891D01*
X10904Y-1709D02*
X14104Y1491D01*
X36504Y6590D02*
Y19895D01*
X41000Y24390D01*
Y28398D01*
X46904Y10690D02*
X51004Y6590D01*
X46904Y10690D02*
Y16991D01*
X50004Y20090D01*
X54300D01*
X56000Y21790D01*
Y28398D01*
X36000Y-11242D02*
Y603D01*
X34004Y-13238D02*
X36000Y-11242D01*
X58500Y20691D02*
Y28398D01*
X56904Y19094D02*
X58500Y20691D01*
X56904Y8963D02*
Y19094D01*
Y8963D02*
X59976Y5891D01*
X48500Y22691D02*
Y28398D01*
X53500D02*
Y31383D01*
X58747Y36630D01*
X74004D01*
X76404Y34230D01*
Y4891D02*
Y34230D01*
X61000Y-4106D02*
X62204Y-5310D01*
X61000Y-4106D02*
Y603D01*
X63500Y24590D02*
Y28398D01*
X61000Y22895D02*
Y28398D01*
Y22895D02*
X62004Y21891D01*
X66504D01*
X-70296Y8086D02*
X-63374Y15008D01*
X-70296Y-27209D02*
Y8086D01*
Y-27209D02*
X-65196Y-32309D01*
X9372D01*
X21250Y-20432D01*
Y-15260D01*
X28500Y-8010D01*
Y603D01*
X-61896Y-22009D02*
X-53374Y-13487D01*
Y-4992D01*
X10704Y-16010D02*
X21000Y-5714D01*
Y603D01*
X46000Y-6406D02*
X46004Y-6409D01*
X46000Y-6406D02*
Y603D01*
X-57696Y30686D02*
X-53374Y35008D01*
X-57696Y9330D02*
Y30686D01*
Y9330D02*
X-53374Y5008D01*
Y45008D02*
Y55008D01*
Y35008D02*
Y45008D01*
X56000Y603D02*
X58500D01*
D16*
X18500D02*
D03*
X21000D02*
D03*
X23500D02*
D03*
X26000D02*
D03*
X28500D02*
D03*
X31000D02*
D03*
X33500D02*
D03*
X36000D02*
D03*
X38500D02*
D03*
X41000D02*
D03*
X43500D02*
D03*
X46000D02*
D03*
X48500D02*
D03*
X51000D02*
D03*
X53500D02*
D03*
X56000D02*
D03*
X58500D02*
D03*
X61000D02*
D03*
X63500D02*
D03*
X18500Y28398D02*
D03*
X21000D02*
D03*
X23500D02*
D03*
X26000D02*
D03*
X28500D02*
D03*
X31000D02*
D03*
X33500D02*
D03*
X36000D02*
D03*
X38500D02*
D03*
X41000D02*
D03*
X43500D02*
D03*
X46000D02*
D03*
X48500D02*
D03*
X51000D02*
D03*
X53500D02*
D03*
X56000D02*
D03*
X58500D02*
D03*
X61000D02*
D03*
X63500D02*
D03*
D26*
X83626Y73008D02*
D03*
D27*
X3126Y-18492D02*
D03*
X75882D02*
D03*
D28*
X-63374Y55008D02*
D03*
D29*
X-53374Y45008D02*
D03*
Y55008D02*
D03*
X-63374Y45008D02*
D03*
X-53374Y35008D02*
D03*
X-63374D02*
D03*
X-53374Y25008D02*
D03*
X-63374D02*
D03*
X-53374Y15008D02*
D03*
X-63374D02*
D03*
X-53374Y5008D02*
D03*
X-63374D02*
D03*
X-53374Y-4992D02*
D03*
X-63374D02*
D03*
D30*
X-4000Y14500D02*
D03*
D31*
X21000D02*
D03*
X31000D02*
D03*
X41000D02*
D03*
X51000D02*
D03*
X61000D02*
D03*
D32*
X1205Y47362D02*
D03*
D33*
X-14500Y10500D02*
D03*
X-5811Y-1725D02*
D03*
X-18500Y34500D02*
D03*
X69000Y32500D02*
D03*
X51500Y36000D02*
D03*
X20500Y42000D02*
D03*
X40000Y39500D02*
D03*
X47574Y35925D02*
D03*
X15000Y23500D02*
D03*
X23500Y21500D02*
D03*
X67904Y-3610D02*
D03*
X64704Y-11209D02*
D03*
X62204Y-13710D02*
D03*
X47675Y-17175D02*
D03*
X43504Y-13810D02*
D03*
X32000Y-16500D02*
D03*
X4500Y-27500D02*
D03*
X22500D02*
D03*
X50000Y-27729D02*
D03*
X33000Y-31500D02*
D03*
X45000Y-29500D02*
D03*
X65500Y-29000D02*
D03*
X-496Y26090D02*
D03*
X7204Y22886D02*
D03*
X5204Y4384D02*
D03*
X8882Y9190D02*
D03*
X-29896Y19091D02*
D03*
X6804Y15991D02*
D03*
X25504Y16691D02*
D03*
X36780Y-15722D02*
D03*
X-15996Y-6910D02*
D03*
X15882Y-15932D02*
D03*
X24313Y-16409D02*
D03*
X28480D02*
D03*
X59976Y-17210D02*
D03*
X8204Y-18409D02*
D03*
X2405Y9590D02*
D03*
X-13196Y33290D02*
D03*
X36504Y6590D02*
D03*
X51004D02*
D03*
X59976Y5891D02*
D03*
X48500Y22691D02*
D03*
X63500Y24590D02*
D03*
X66504Y21891D02*
D03*
X-61896Y-22009D02*
D03*
X10704Y-16010D02*
D03*
X40104Y-14609D02*
D03*
M02*
