G04*
G04 #@! TF.GenerationSoftware,Altium Limited,Altium Designer,21.6.4 (81)*
G04*
G04 Layer_Color=8388736*
%FSLAX25Y25*%
%MOIN*%
G70*
G04*
G04 #@! TF.SameCoordinates,82D07BB3-39A6-4B9F-A2C0-6B90CFECE1EA*
G04*
G04*
G04 #@! TF.FilePolarity,Negative*
G04*
G01*
G75*
%ADD17R,0.02493X0.05800*%
%ADD18R,0.12800X0.12800*%
%ADD19C,0.04816*%
%ADD20R,0.06300X0.06300*%
%ADD21C,0.06300*%
%ADD22C,0.10209*%
%ADD23C,0.05989*%
%ADD24C,0.25800*%
%ADD25C,0.02800*%
D17*
X18500Y603D02*
D03*
X21000D02*
D03*
X23500D02*
D03*
X26000D02*
D03*
X28500D02*
D03*
X31000D02*
D03*
X33500D02*
D03*
X36000D02*
D03*
X38500D02*
D03*
X41000D02*
D03*
X43500D02*
D03*
X46000D02*
D03*
X48500D02*
D03*
X51000D02*
D03*
X53500D02*
D03*
X56000D02*
D03*
X58500D02*
D03*
X61000D02*
D03*
X63500D02*
D03*
X18500Y28398D02*
D03*
X21000D02*
D03*
X23500D02*
D03*
X26000D02*
D03*
X28500D02*
D03*
X31000D02*
D03*
X33500D02*
D03*
X36000D02*
D03*
X38500D02*
D03*
X41000D02*
D03*
X43500D02*
D03*
X46000D02*
D03*
X48500D02*
D03*
X51000D02*
D03*
X53500D02*
D03*
X56000D02*
D03*
X58500D02*
D03*
X61000D02*
D03*
X63500D02*
D03*
D18*
X83626Y73008D02*
D03*
D19*
X3126Y-18492D02*
D03*
X75882D02*
D03*
D20*
X-63374Y55008D02*
D03*
D21*
X-53374Y45008D02*
D03*
Y55008D02*
D03*
X-63374Y45008D02*
D03*
X-53374Y35008D02*
D03*
X-63374D02*
D03*
X-53374Y25008D02*
D03*
X-63374D02*
D03*
X-53374Y15008D02*
D03*
X-63374D02*
D03*
X-53374Y5008D02*
D03*
X-63374D02*
D03*
X-53374Y-4992D02*
D03*
X-63374D02*
D03*
D22*
X-4000Y14500D02*
D03*
D23*
X21000D02*
D03*
X31000D02*
D03*
X41000D02*
D03*
X51000D02*
D03*
X61000D02*
D03*
D24*
X1205Y47362D02*
D03*
D25*
X-14500Y10500D02*
D03*
X-5811Y-1725D02*
D03*
X-18500Y34500D02*
D03*
X69000Y32500D02*
D03*
X51500Y36000D02*
D03*
X20500Y42000D02*
D03*
X40000Y39500D02*
D03*
X47574Y35925D02*
D03*
X15000Y23500D02*
D03*
X23500Y21500D02*
D03*
X67904Y-3610D02*
D03*
X64704Y-11209D02*
D03*
X62204Y-13710D02*
D03*
X47675Y-17175D02*
D03*
X43504Y-13810D02*
D03*
X32000Y-16500D02*
D03*
X4500Y-27500D02*
D03*
X22500D02*
D03*
X50000Y-27729D02*
D03*
X33000Y-31500D02*
D03*
X45000Y-29500D02*
D03*
X65500Y-29000D02*
D03*
X-496Y26090D02*
D03*
X7204Y22886D02*
D03*
X5204Y4384D02*
D03*
X8882Y9190D02*
D03*
X-29896Y19091D02*
D03*
X6804Y15991D02*
D03*
X25504Y16691D02*
D03*
X36780Y-15722D02*
D03*
X-15996Y-6910D02*
D03*
X15882Y-15932D02*
D03*
X24313Y-16409D02*
D03*
X28480D02*
D03*
X59976Y-17210D02*
D03*
X8204Y-18409D02*
D03*
X2405Y9590D02*
D03*
X-13196Y33290D02*
D03*
X36504Y6590D02*
D03*
X51004D02*
D03*
X59976Y5891D02*
D03*
X48500Y22691D02*
D03*
X63500Y24590D02*
D03*
X66504Y21891D02*
D03*
X-61896Y-22009D02*
D03*
X10704Y-16010D02*
D03*
X40104Y-14609D02*
D03*
M02*
