M48
;Layer_Color=9474304
;FILE_FORMAT=2:5
INCH,LZ
;TYPE=PLATED
T1F00S00C0.01300
T2F00S00C0.03189
T3F00S00C0.03500
T4F00S00C0.07000
T5F00S00C0.15000
;TYPE=NON_PLATED
T6F00S00C0.04016
T7F00S00C0.09409
%
T01
X-0061896Y-0022009
X-0015996Y-000691
X-0005811Y-0001725
X0005204Y0004384
X0008204Y-0018409
X0010704Y-001601
X0015882Y-0015932
X0024313Y-0016409
X002848
X0032Y-00165
X003678Y-0015722
X0040104Y-0014609
X0043504Y-001381
X0047675Y-0017175
X0059976Y-001721
X0062204Y-001371
X0064704Y-0011209
X0067904Y-000361
X00655Y-0029
X005Y-0027729
X0045Y-00295
X0033Y-00315
X00225Y-00275
X00045
X0002405Y000959
X0008882Y000919
X0006804Y0015991
X0007204Y0022886
X0015Y00235
X00235Y00215
X0025504Y0016691
X0036504Y000659
X0051004
X0059976Y0005891
X00635Y002459
X0066504Y0021891
X0069Y00325
X00515Y0036
X0047574Y0035925
X004Y00395
X00205Y0042
X-0000496Y002609
X00485Y0022691
X-0013196Y003329
X-00185Y00345
X-0029896Y0019091
X-00145Y00105
T02
X0021Y00145
X0031
X0041
X0051
X0061
T03
X-0063374Y-0004992
Y0005008
X-0053374
Y-0004992
Y0015008
Y0025008
Y0035008
Y0045008
Y0055008
X-0063374
Y0045008
Y0035008
Y0025008
Y0015008
T04
X0083626Y0073008
T05
X0001205Y0047362
T06
X0003126Y-0018492
X0075882
T07
X-0004Y00145
M30
