G04*
G04 #@! TF.GenerationSoftware,Altium Limited,Altium Designer,21.6.4 (81)*
G04*
G04 Layer_Physical_Order=2*
G04 Layer_Color=16711680*
%FSLAX25Y25*%
%MOIN*%
G70*
G04*
G04 #@! TF.SameCoordinates,82D07BB3-39A6-4B9F-A2C0-6B90CFECE1EA*
G04*
G04*
G04 #@! TF.FilePolarity,Positive*
G04*
G01*
G75*
%ADD15C,0.01000*%
%ADD26R,0.12000X0.12000*%
%ADD27C,0.04016*%
%ADD28R,0.05500X0.05500*%
%ADD29C,0.05500*%
%ADD30C,0.09409*%
%ADD31C,0.05189*%
%ADD32C,0.25000*%
%ADD33C,0.02000*%
%ADD34C,0.01000*%
%ADD35R,0.18504X0.02520*%
%ADD36R,0.10000X0.02520*%
%ADD37R,0.01811X0.05709*%
D15*
X-6819Y-10D02*
X-5811Y-1017D01*
X-2119Y-4710D01*
X-14500Y10500D02*
X-1290Y-2709D01*
X-5811Y-1725D02*
Y-1017D01*
X-2119Y-4710D02*
X26004D01*
X-1290Y-2709D02*
X14382D01*
X-58391Y-10D02*
X-6819D01*
X-19278Y35008D02*
X-18771Y34500D01*
X-53374Y35008D02*
X-19278D01*
X-18771Y34500D02*
X-18500D01*
X69000Y32500D02*
X69271D01*
X70861Y34091D01*
X72604D01*
X73904Y32790D01*
X53491Y37990D02*
X58704D01*
X51500Y36000D02*
X53491Y37990D01*
X20500Y35487D02*
Y42000D01*
X14504Y29491D02*
X20500Y35487D01*
X36904Y10965D02*
Y36404D01*
X40000Y39500D01*
X47574Y32037D02*
X48004Y31608D01*
Y27990D02*
Y31608D01*
X47574Y32037D02*
Y35925D01*
X14729Y23500D02*
X15000D01*
X7204Y22886D02*
X14116D01*
X14729Y23500D01*
X23504Y21504D02*
Y53063D01*
X23500Y21500D02*
X23504Y21504D01*
X50820Y-5085D02*
X52135Y-6400D01*
X50528Y-4792D02*
X50820Y-5085D01*
X52135Y-6400D02*
X68713D01*
X50528Y-4792D02*
Y1685D01*
X68713Y-6400D02*
X71904Y-3210D01*
X56004Y-3610D02*
X67904D01*
X53677Y-1283D02*
X56004Y-3610D01*
X53677Y-1283D02*
Y1685D01*
X62204Y-10461D02*
Y-8709D01*
X66004D02*
X67204Y-9910D01*
X64704Y-11209D02*
X66276Y-12781D01*
Y-22606D02*
Y-12781D01*
X67204Y-10461D02*
Y-9910D01*
X62204Y-8709D02*
X66004D01*
X62204Y-13710D02*
X63126Y-14631D01*
X52004Y-10461D02*
X62204D01*
X67204D02*
X72752D01*
X47526Y-17323D02*
X47675Y-17175D01*
X47526Y-22458D02*
Y-17323D01*
X47378Y-22606D02*
X47526Y-22458D01*
X42604Y-17109D02*
Y-14709D01*
X43504Y-13810D01*
X-61636Y-13269D02*
X32305D01*
X34500Y-15464D01*
X31630Y-22606D02*
Y-17141D01*
X32000Y-16771D02*
Y-16500D01*
X34500Y-17443D02*
X34780Y-17722D01*
X31630Y-17141D02*
X32000Y-16771D01*
X34500Y-17443D02*
Y-15464D01*
X34780Y-22606D02*
Y-17722D01*
X36780Y-15722D01*
X18626Y-25743D02*
Y-23012D01*
X19032Y-22606D01*
X4500Y-27500D02*
X16870D01*
X18626Y-25743D01*
X22130Y-26860D02*
Y-22657D01*
X28126Y-31500D02*
X33000D01*
X-61896Y-22009D02*
X-53906Y-30000D01*
X23536D01*
X25989Y-27546D02*
X40493D01*
X22130Y-26860D02*
X22500Y-27229D01*
Y-27500D02*
Y-27229D01*
X-64996Y-32309D02*
X27317D01*
X23536Y-30000D02*
X25989Y-27546D01*
X27317Y-32309D02*
X28126Y-31500D01*
X22130Y-22657D02*
X22181Y-22606D01*
X-70096Y-27209D02*
X-64996Y-32309D01*
X50514Y-27216D02*
Y-22620D01*
X50000Y-27729D02*
X50514Y-27216D01*
X41280Y-20222D02*
Y-18434D01*
X41079Y-20222D02*
X41280D01*
X41079Y-26961D02*
Y-20222D01*
X40493Y-27546D02*
X41079Y-26961D01*
X44228Y-28458D02*
X45000Y-29229D01*
Y-29500D02*
Y-29229D01*
X44228Y-28458D02*
Y-22606D01*
X50514Y-22620D02*
X50528Y-22606D01*
X54771Y-29000D02*
X65500D01*
X53677Y-27907D02*
X54771Y-29000D01*
X53677Y-27907D02*
Y-22606D01*
X73904Y32790D02*
Y36790D01*
Y-10461D02*
Y32790D01*
X5204Y4384D02*
X9583D01*
X-8384Y29491D02*
X14504D01*
X-58891D02*
X-8384D01*
X-496Y26090D02*
X5208Y20387D01*
X15114D01*
X21000Y14500D01*
X73904Y-10461D02*
X77804D01*
X83626Y-4639D01*
Y73008D01*
X41000Y14500D02*
Y32886D01*
X50504Y42390D01*
X68304D01*
X73904Y36790D01*
X72752Y-10461D02*
X73904D01*
X9583Y1685D02*
Y4384D01*
X8882Y9190D02*
X11804D01*
X14954Y6041D01*
X18004D01*
X19032Y5013D01*
Y1685D02*
Y5013D01*
X-8384Y29491D02*
X3763Y17344D01*
Y14731D02*
Y17344D01*
Y14731D02*
X5004Y13490D01*
X10333D01*
X15733Y8090D01*
X18904D01*
X22181Y4813D01*
Y1685D02*
Y4813D01*
X-63374Y25008D02*
X-58891Y29491D01*
X-39696Y9290D02*
X-29896Y19091D01*
X-59091Y9290D02*
X-39696D01*
X-63374Y5008D02*
X-59091Y9290D01*
X25331Y1685D02*
Y4584D01*
X19524Y10390D02*
X25331Y4584D01*
X16261Y10390D02*
X19524D01*
X10661Y15991D02*
X16261Y10390D01*
X6804Y15991D02*
X10661D01*
X28480Y-2233D02*
Y1685D01*
X26004Y-4710D02*
X28480Y-2233D01*
X-63374Y-4992D02*
X-58391Y-10D01*
X25504Y11090D02*
Y16691D01*
Y11090D02*
X31630Y4964D01*
Y1685D02*
Y4964D01*
X34780Y-5434D02*
Y1685D01*
X33304Y-6910D02*
X34780Y-5434D01*
X-15996Y-6910D02*
X33304D01*
X71904Y-3210D02*
Y24791D01*
X58704Y37990D02*
X71904Y24791D01*
X15882Y-22606D02*
Y-15932D01*
X25331Y-22606D02*
Y-17427D01*
X24313Y-16409D02*
X25331Y-17427D01*
X28480Y-22606D02*
Y-16409D01*
X59976Y-22606D02*
Y-17210D01*
X9583Y-22606D02*
Y-19788D01*
X8204Y-18409D02*
X9583Y-19788D01*
X2405Y9590D02*
X4311D01*
X7517Y6384D01*
X11782D01*
X12732Y5434D01*
Y1685D02*
Y5434D01*
X15882Y-1209D02*
Y1685D01*
X14382Y-2709D02*
X15882Y-1209D01*
X-13196Y33290D02*
Y56390D01*
X-8223Y61362D01*
X15205D01*
X23504Y53063D01*
X41079Y1685D02*
Y6791D01*
X36904Y10965D02*
X41079Y6791D01*
X37929Y1685D02*
Y5165D01*
X36504Y6590D02*
X37929Y5165D01*
X56827Y1685D02*
Y4791D01*
X55027Y6590D02*
X56827Y4791D01*
X51004Y6590D02*
X55027D01*
X44228Y1685D02*
Y7515D01*
X45104Y8390D01*
Y25091D01*
X48004Y27990D01*
X-70096Y-27209D02*
Y28286D01*
X-63374Y35008D01*
X59976Y1685D02*
Y5891D01*
X47378Y1685D02*
Y8729D01*
X48094Y9445D01*
X61759D01*
X65104Y12790D01*
Y17591D01*
X64004Y18690D02*
X65104Y17591D01*
X52500Y18690D02*
X64004D01*
X48500Y22691D02*
X52500Y18690D01*
X63126Y-22606D02*
Y-14631D01*
X63500Y24590D02*
X68004D01*
X69104Y23491D01*
Y7419D02*
Y23491D01*
X66276Y4591D02*
X69104Y7419D01*
X66276Y1685D02*
Y4591D01*
X66504Y21891D02*
X67104Y21291D01*
Y9490D02*
Y21291D01*
X63126Y5513D02*
X67104Y9490D01*
X63126Y1685D02*
Y5513D01*
X-53374Y55008D02*
X-35374Y73008D01*
X83626D01*
X12732Y-22606D02*
Y-18038D01*
X10704Y-16010D02*
X12732Y-18038D01*
X-56879Y15008D02*
X-53374D01*
X-61896Y9990D02*
X-56879Y15008D01*
X-64496Y9990D02*
X-61896D01*
X-67696Y6791D02*
X-64496Y9990D01*
X-67696Y-7209D02*
Y6791D01*
Y-7209D02*
X-61636Y-13269D01*
X6256Y-10461D02*
X27004D01*
X60887Y14387D02*
X61000Y14500D01*
X51113Y14387D02*
X60887D01*
X51000Y14500D02*
X51113Y14387D01*
X41280Y-18434D02*
X42604Y-17109D01*
X39280Y-15434D02*
X40104Y-14609D01*
X39280Y-18223D02*
Y-15434D01*
X37929Y-19573D02*
X39280Y-18223D01*
X37929Y-22606D02*
Y-19573D01*
X27004Y-10461D02*
X52004D01*
X56827Y-22606D02*
X59976D01*
D26*
X83626Y73008D02*
D03*
D27*
X3126Y-18492D02*
D03*
X75882D02*
D03*
D28*
X-63374Y55008D02*
D03*
D29*
X-53374Y45008D02*
D03*
Y55008D02*
D03*
X-63374Y45008D02*
D03*
X-53374Y35008D02*
D03*
X-63374D02*
D03*
X-53374Y25008D02*
D03*
X-63374D02*
D03*
X-53374Y15008D02*
D03*
X-63374D02*
D03*
X-53374Y5008D02*
D03*
X-63374D02*
D03*
X-53374Y-4992D02*
D03*
X-63374D02*
D03*
D30*
X-4000Y14500D02*
D03*
D31*
X21000D02*
D03*
X31000D02*
D03*
X41000D02*
D03*
X51000D02*
D03*
X61000D02*
D03*
D32*
X1205Y47362D02*
D03*
D33*
X-14500Y10500D02*
D03*
X-5811Y-1725D02*
D03*
X-18500Y34500D02*
D03*
X69000Y32500D02*
D03*
X51500Y36000D02*
D03*
X20500Y42000D02*
D03*
X40000Y39500D02*
D03*
X47574Y35925D02*
D03*
X15000Y23500D02*
D03*
X23500Y21500D02*
D03*
X67904Y-3610D02*
D03*
X64704Y-11209D02*
D03*
X62204Y-13710D02*
D03*
X47675Y-17175D02*
D03*
X43504Y-13810D02*
D03*
X32000Y-16500D02*
D03*
X4500Y-27500D02*
D03*
X22500D02*
D03*
X50000Y-27729D02*
D03*
X33000Y-31500D02*
D03*
X45000Y-29500D02*
D03*
X65500Y-29000D02*
D03*
X-496Y26090D02*
D03*
X7204Y22886D02*
D03*
X5204Y4384D02*
D03*
X8882Y9190D02*
D03*
X-29896Y19091D02*
D03*
X6804Y15991D02*
D03*
X25504Y16691D02*
D03*
X36780Y-15722D02*
D03*
X-15996Y-6910D02*
D03*
X15882Y-15932D02*
D03*
X24313Y-16409D02*
D03*
X28480D02*
D03*
X59976Y-17210D02*
D03*
X8204Y-18409D02*
D03*
X2405Y9590D02*
D03*
X-13196Y33290D02*
D03*
X36504Y6590D02*
D03*
X51004D02*
D03*
X59976Y5891D02*
D03*
X48500Y22691D02*
D03*
X63500Y24590D02*
D03*
X66504Y21891D02*
D03*
X-61896Y-22009D02*
D03*
X10704Y-16010D02*
D03*
X40104Y-14609D02*
D03*
D34*
X50820Y-5085D02*
D03*
D35*
X27004Y-10461D02*
D03*
X52004D02*
D03*
D36*
X6256D02*
D03*
X72752D02*
D03*
D37*
X9583Y-22606D02*
D03*
Y1685D02*
D03*
X12732Y-22606D02*
D03*
Y1685D02*
D03*
X15882Y-22606D02*
D03*
Y1685D02*
D03*
X19032Y-22606D02*
D03*
Y1685D02*
D03*
X22181Y-22606D02*
D03*
Y1685D02*
D03*
X25331Y-22606D02*
D03*
Y1685D02*
D03*
X28480Y-22606D02*
D03*
Y1685D02*
D03*
X31630Y-22606D02*
D03*
Y1685D02*
D03*
X34780Y-22606D02*
D03*
Y1685D02*
D03*
X37929Y-22606D02*
D03*
Y1685D02*
D03*
X41079Y-22606D02*
D03*
Y1685D02*
D03*
X44228Y-22606D02*
D03*
Y1685D02*
D03*
X47378Y-22606D02*
D03*
Y1685D02*
D03*
X50528Y-22606D02*
D03*
Y1685D02*
D03*
X53677Y-22606D02*
D03*
Y1685D02*
D03*
X56827Y-22606D02*
D03*
Y1685D02*
D03*
X59976Y-22606D02*
D03*
Y1685D02*
D03*
X63126Y-22606D02*
D03*
Y1685D02*
D03*
X66276Y-22606D02*
D03*
Y1685D02*
D03*
X69425Y-22606D02*
D03*
Y1685D02*
D03*
M02*
