G04*
G04 #@! TF.GenerationSoftware,Altium Limited,Altium Designer,21.6.4 (81)*
G04*
G04 Layer_Color=65535*
%FSLAX25Y25*%
%MOIN*%
G70*
G04*
G04 #@! TF.SameCoordinates,82D07BB3-39A6-4B9F-A2C0-6B90CFECE1EA*
G04*
G04*
G04 #@! TF.FilePolarity,Positive*
G04*
G01*
G75*
%ADD10C,0.00984*%
%ADD11C,0.00787*%
%ADD12C,0.01575*%
%ADD13C,0.00500*%
%ADD14C,0.00800*%
%ADD15C,0.01000*%
D10*
X84118Y81079D02*
G03*
X84118Y81079I-492J0D01*
G01*
D11*
X-77280Y54996D02*
G03*
X-77280Y54996I-394J0D01*
G01*
X78114Y67496D02*
Y78520D01*
Y67496D02*
X89138D01*
Y78520D01*
X78114D02*
X89138D01*
D12*
X19563Y-4831D02*
G03*
X19563Y-4831I-787J0D01*
G01*
D13*
X-76374Y-24992D02*
X-40374D01*
Y75008D01*
X-76374D02*
X-40374D01*
X-76374Y-24992D02*
Y75008D01*
X91000Y898D02*
Y28102D01*
X65803Y898D02*
X91000D01*
X-9000Y28102D02*
X16197D01*
X-9000Y898D02*
X16197D01*
X65803Y28102D02*
X91000D01*
X-9000Y18614D02*
Y28102D01*
Y898D02*
Y10386D01*
X-34204Y-15326D02*
Y-16659D01*
Y-15993D01*
X-30872D01*
X-30205Y-16659D01*
Y-17326D01*
X-30872Y-17992D01*
X-30205Y-13993D02*
X-30872D01*
Y-13327D01*
X-30205D01*
Y-13993D01*
X-34204Y-6662D02*
X-30205D01*
Y-4663D01*
X-30872Y-3997D01*
X-33538D01*
X-34204Y-4663D01*
Y-6662D01*
X-32871Y-1997D02*
Y-664D01*
X-32205Y2D01*
X-30205D01*
Y-1997D01*
X-30872Y-2664D01*
X-31538Y-1997D01*
Y2D01*
X-30205Y1335D02*
Y2668D01*
Y2001D01*
X-32871D01*
Y1335D01*
X-30205Y4667D02*
Y6000D01*
Y5334D01*
X-34204D01*
Y4667D01*
X-32871Y7999D02*
X-30872D01*
X-30205Y8666D01*
Y10665D01*
X-29539D01*
X-28872Y9999D01*
Y9332D01*
X-30205Y10665D02*
X-32871D01*
X-32205Y15997D02*
Y18663D01*
X-30205Y26660D02*
Y23994D01*
X-32871Y26660D01*
X-33538D01*
X-34204Y25994D01*
Y24661D01*
X-33538Y23994D01*
Y27993D02*
X-34204Y28659D01*
Y29992D01*
X-33538Y30659D01*
X-30872D01*
X-30205Y29992D01*
Y28659D01*
X-30872Y27993D01*
X-33538D01*
X-30205Y34657D02*
Y31992D01*
X-32871Y34657D01*
X-33538D01*
X-34204Y33991D01*
Y32658D01*
X-33538Y31992D01*
X-30205Y35991D02*
Y37323D01*
Y36657D01*
X-34204D01*
X-33538Y35991D01*
X-26206Y-15326D02*
X-26873Y-15993D01*
Y-17326D01*
X-26206Y-17992D01*
X-23540D01*
X-22874Y-17326D01*
Y-15993D01*
X-23540Y-15326D01*
X-22874Y-13327D02*
Y-11994D01*
X-23540Y-11328D01*
X-24873D01*
X-25540Y-11994D01*
Y-13327D01*
X-24873Y-13993D01*
X-23540D01*
X-22874Y-13327D01*
Y-9995D02*
Y-8662D01*
Y-9328D01*
X-26873D01*
Y-9995D01*
X-22874Y-5996D02*
Y-4663D01*
X-23540Y-3997D01*
X-24873D01*
X-25540Y-4663D01*
Y-5996D01*
X-24873Y-6662D01*
X-23540D01*
X-22874Y-5996D01*
Y-2664D02*
X-23540D01*
Y-1997D01*
X-22874D01*
Y-2664D01*
X-26206Y7333D02*
X-26873Y6667D01*
Y5334D01*
X-26206Y4667D01*
X-25540D01*
X-24873Y5334D01*
Y6667D01*
X-24207Y7333D01*
X-23540D01*
X-22874Y6667D01*
Y5334D01*
X-23540Y4667D01*
X-26206Y9332D02*
X-25540D01*
Y8666D01*
Y9999D01*
Y9332D01*
X-23540D01*
X-22874Y9999D01*
X-25540Y12665D02*
Y13998D01*
X-24873Y14664D01*
X-22874D01*
Y12665D01*
X-23540Y11998D01*
X-24207Y12665D01*
Y14664D01*
X-26206Y16663D02*
X-25540D01*
Y15997D01*
Y17330D01*
Y16663D01*
X-23540D01*
X-22874Y17330D01*
Y21328D02*
Y19996D01*
X-23540Y19329D01*
X-24873D01*
X-25540Y19996D01*
Y21328D01*
X-24873Y21995D01*
X-24207D01*
Y19329D01*
X-26873Y27327D02*
X-23540D01*
X-22874Y27993D01*
Y29326D01*
X-23540Y29992D01*
X-26873D01*
X-22874Y31325D02*
X-25540D01*
Y33325D01*
X-24873Y33991D01*
X-22874D01*
Y35324D02*
Y36657D01*
Y35991D01*
X-25540D01*
Y35324D01*
Y38656D02*
X-22874Y39989D01*
X-25540Y41322D01*
X-22874Y42655D02*
X-23540D01*
Y43321D01*
X-22874D01*
Y42655D01*
X80292Y64840D02*
X79625Y65507D01*
X78292D01*
X77626Y64840D01*
Y62174D01*
X78292Y61508D01*
X79625D01*
X80292Y62174D01*
Y63507D01*
X78959D01*
X81625Y61508D02*
Y65507D01*
X84290Y61508D01*
Y65507D01*
X85623D02*
Y61508D01*
X87623D01*
X88289Y62174D01*
Y64840D01*
X87623Y65507D01*
X85623D01*
D14*
X14300Y78120D02*
Y74788D01*
X14966Y74122D01*
X16299D01*
X16966Y74788D01*
Y78120D01*
X18299Y74122D02*
X20298D01*
X20965Y74788D01*
X20298Y75455D01*
X18965D01*
X18299Y76121D01*
X18965Y76788D01*
X20965D01*
X24297Y74122D02*
X22964D01*
X22297Y74788D01*
Y76121D01*
X22964Y76788D01*
X24297D01*
X24963Y76121D01*
Y75455D01*
X22297D01*
X30295Y74122D02*
Y78120D01*
X31628Y76788D01*
X32961Y78120D01*
Y74122D01*
X36293D02*
Y78120D01*
X34293Y76121D01*
X36959D01*
X38292D02*
X40958D01*
X42291Y77454D02*
X42957Y78120D01*
X44290D01*
X44957Y77454D01*
Y76788D01*
X44290Y76121D01*
X43624D01*
X44290D01*
X44957Y75455D01*
Y74788D01*
X44290Y74122D01*
X42957D01*
X42291Y74788D01*
X46290Y77454D02*
X46956Y78120D01*
X48289D01*
X48956Y77454D01*
Y74788D01*
X48289Y74122D01*
X46956D01*
X46290Y74788D01*
Y77454D01*
X54287Y74122D02*
X56287D01*
X56953Y74788D01*
X56287Y75455D01*
X54953D01*
X54287Y76121D01*
X54953Y76788D01*
X56953D01*
X60952D02*
X58952D01*
X58286Y76121D01*
Y74788D01*
X58952Y74122D01*
X60952D01*
X62284Y76788D02*
Y74122D01*
Y75455D01*
X62951Y76121D01*
X63617Y76788D01*
X64284D01*
X68283Y74122D02*
X66950D01*
X66283Y74788D01*
Y76121D01*
X66950Y76788D01*
X68283D01*
X68949Y76121D01*
Y75455D01*
X66283D01*
X70282Y76788D02*
Y74788D01*
X70948Y74122D01*
X71615Y74788D01*
X72281Y74122D01*
X72948Y74788D01*
Y76788D01*
X14966Y67403D02*
Y70736D01*
Y69403D01*
X14300D01*
X15633D01*
X14966D01*
Y70736D01*
X15633Y71402D01*
X18299Y67403D02*
X19632D01*
X20298Y68070D01*
Y69403D01*
X19632Y70069D01*
X18299D01*
X17632Y69403D01*
Y68070D01*
X18299Y67403D01*
X21631Y70069D02*
Y67403D01*
Y68736D01*
X22297Y69403D01*
X22964Y70069D01*
X23630D01*
X32294Y70736D02*
X31628Y71402D01*
X30295D01*
X29628Y70736D01*
Y68070D01*
X30295Y67403D01*
X31628D01*
X32294Y68070D01*
X33627Y67403D02*
Y71402D01*
X34960Y70069D01*
X36293Y71402D01*
Y67403D01*
X40292D02*
X37626D01*
X40292Y70069D01*
Y70736D01*
X39625Y71402D01*
X38292D01*
X37626Y70736D01*
X41625D02*
X42291Y71402D01*
X43624D01*
X44290Y70736D01*
Y70069D01*
X43624Y69403D01*
X42957D01*
X43624D01*
X44290Y68736D01*
Y68070D01*
X43624Y67403D01*
X42291D01*
X41625Y68070D01*
X48289Y71402D02*
X45623D01*
Y69403D01*
X46956Y70069D01*
X47623D01*
X48289Y69403D01*
Y68070D01*
X47623Y67403D01*
X46290D01*
X45623Y68070D01*
X49622Y70736D02*
X50288Y71402D01*
X51621D01*
X52288Y70736D01*
Y68070D01*
X51621Y67403D01*
X50288D01*
X49622Y68070D01*
Y70736D01*
X57619Y70069D02*
Y68070D01*
X58286Y67403D01*
X58952Y68070D01*
X59619Y67403D01*
X60285Y68070D01*
Y70069D01*
X61618Y67403D02*
X62951D01*
X62284D01*
Y70069D01*
X61618D01*
X65617Y70736D02*
Y70069D01*
X64950D01*
X66283D01*
X65617D01*
Y68070D01*
X66283Y67403D01*
X68283Y71402D02*
Y67403D01*
Y69403D01*
X68949Y70069D01*
X70282D01*
X70948Y69403D01*
Y67403D01*
X14966Y62684D02*
X16299D01*
X16966Y62018D01*
Y60018D01*
X14966D01*
X14300Y60685D01*
X14966Y61351D01*
X16966D01*
X22297Y60018D02*
X23630D01*
X22964D01*
Y64017D01*
X22297Y63351D01*
X27629Y60018D02*
Y64017D01*
X25630Y62018D01*
X28295D01*
X29628Y60018D02*
Y62684D01*
X30295D01*
X30961Y62018D01*
Y60018D01*
Y62018D01*
X31628Y62684D01*
X32294Y62018D01*
Y60018D01*
X33627D02*
Y62684D01*
X34293D01*
X34960Y62018D01*
Y60018D01*
Y62018D01*
X35626Y62684D01*
X36293Y62018D01*
Y60018D01*
X46956D02*
X45623Y61351D01*
Y62684D01*
X46956Y64017D01*
X48956Y60685D02*
X49622Y60018D01*
X50955D01*
X51621Y60685D01*
Y63351D01*
X50955Y64017D01*
X49622D01*
X48956Y63351D01*
Y62684D01*
X49622Y62018D01*
X51621D01*
X52954Y60018D02*
X55620Y62684D01*
X56953Y60018D02*
X58286D01*
X57619D01*
Y64017D01*
X56953Y63351D01*
X62951Y64017D02*
X61618Y63351D01*
X60285Y62018D01*
Y60685D01*
X60952Y60018D01*
X62284D01*
X62951Y60685D01*
Y61351D01*
X62284Y62018D01*
X60285D01*
X64950Y64684D02*
Y63351D01*
X64284Y62684D01*
X67616Y64684D02*
Y63351D01*
X66950Y62684D01*
X69616Y60018D02*
X70948Y61351D01*
Y62684D01*
X69616Y64017D01*
X14300Y54633D02*
X16299D01*
X16966Y55299D01*
X16299Y55966D01*
X14966D01*
X14300Y56632D01*
X14966Y57299D01*
X16966D01*
X18299Y53300D02*
Y57299D01*
X20298D01*
X20965Y56632D01*
Y55299D01*
X20298Y54633D01*
X18299D01*
X22964Y57299D02*
X24297D01*
X24963Y56632D01*
Y54633D01*
X22964D01*
X22297Y55299D01*
X22964Y55966D01*
X24963D01*
X28962Y57299D02*
X26963D01*
X26296Y56632D01*
Y55299D01*
X26963Y54633D01*
X28962D01*
X32294D02*
X30961D01*
X30295Y55299D01*
Y56632D01*
X30961Y57299D01*
X32294D01*
X32961Y56632D01*
Y55966D01*
X30295D01*
X34293Y57299D02*
Y54633D01*
Y55966D01*
X34960Y56632D01*
X35626Y57299D01*
X36293D01*
X38292Y54633D02*
Y55299D01*
X38959D01*
Y54633D01*
X38292D01*
X-72873Y12179D02*
Y9513D01*
X-70874D01*
X-71540Y10846D01*
Y11513D01*
X-70874Y12179D01*
X-69541D01*
X-68875Y11513D01*
Y10180D01*
X-69541Y9513D01*
X-68875Y13512D02*
Y14845D01*
Y14178D01*
X-72873D01*
X-72207Y13512D01*
Y16844D02*
X-72873Y17511D01*
Y18844D01*
X-72207Y19510D01*
X-69541D01*
X-68875Y18844D01*
Y17511D01*
X-69541Y16844D01*
X-72207D01*
Y20843D02*
X-72873Y21509D01*
Y22842D01*
X-72207Y23509D01*
X-71540D01*
X-70874Y22842D01*
Y22176D01*
Y22842D01*
X-70208Y23509D01*
X-69541D01*
X-68875Y22842D01*
Y21509D01*
X-69541Y20843D01*
X-72207Y24842D02*
X-72873Y25508D01*
Y26841D01*
X-72207Y27507D01*
X-71540D01*
X-70874Y26841D01*
Y26175D01*
Y26841D01*
X-70208Y27507D01*
X-69541D01*
X-68875Y26841D01*
Y25508D01*
X-69541Y24842D01*
X-72207Y28841D02*
X-72873Y29507D01*
Y30840D01*
X-72207Y31506D01*
X-69541D01*
X-68875Y30840D01*
Y29507D01*
X-69541Y28841D01*
X-72207D01*
Y32839D02*
X-72873Y33506D01*
Y34839D01*
X-72207Y35505D01*
X-71540D01*
X-70874Y34839D01*
X-70208Y35505D01*
X-69541D01*
X-68875Y34839D01*
Y33506D01*
X-69541Y32839D01*
X-70208D01*
X-70874Y33506D01*
X-71540Y32839D01*
X-72207D01*
X-70874Y33506D02*
Y34839D01*
Y36838D02*
Y39504D01*
X-68875Y43502D02*
Y40837D01*
X-71540Y43502D01*
X-72207D01*
X-72873Y42836D01*
Y41503D01*
X-72207Y40837D01*
X-71408Y-27693D02*
X-72741D01*
X-72075D01*
Y-31026D01*
X-72741Y-31692D01*
X-73408D01*
X-74074Y-31026D01*
X-70075Y-27693D02*
X-67409D01*
X-68742D01*
Y-31692D01*
X-66077D02*
Y-29026D01*
X-64744Y-27693D01*
X-63411Y-29026D01*
Y-31692D01*
Y-29693D01*
X-66077D01*
X-59412Y-28360D02*
X-60079Y-27693D01*
X-61411D01*
X-62078Y-28360D01*
Y-31026D01*
X-61411Y-31692D01*
X-60079D01*
X-59412Y-31026D01*
Y-29693D01*
X-60745D01*
X-53414Y-31692D02*
Y-28360D01*
Y-29693D01*
X-54080D01*
X-52748D01*
X-53414D01*
Y-28360D01*
X-52748Y-27693D01*
X-50082Y-31692D02*
X-48749D01*
X-48082Y-31026D01*
Y-29693D01*
X-48749Y-29026D01*
X-50082D01*
X-50748Y-29693D01*
Y-31026D01*
X-50082Y-31692D01*
X-46749Y-29026D02*
Y-31692D01*
Y-30359D01*
X-46083Y-29693D01*
X-45417Y-29026D01*
X-44750D01*
X-38752Y-31692D02*
Y-27693D01*
X-37419Y-29026D01*
X-36086Y-27693D01*
Y-31692D01*
X-34753D02*
Y-27693D01*
X-32754D01*
X-32088Y-28360D01*
Y-29693D01*
X-32754Y-30359D01*
X-34753D01*
X-28089Y-28360D02*
X-28755Y-27693D01*
X-30088D01*
X-30755Y-28360D01*
Y-31026D01*
X-30088Y-31692D01*
X-28755D01*
X-28089Y-31026D01*
X-24090Y-27693D02*
X-26756D01*
Y-29693D01*
X-25423Y-29026D01*
X-24757D01*
X-24090Y-29693D01*
Y-31026D01*
X-24757Y-31692D01*
X-26090D01*
X-26756Y-31026D01*
X-22757Y-29026D02*
X-20091Y-31692D01*
X-21424Y-30359D01*
X-20091Y-29026D01*
X-22757Y-31692D01*
X-18758Y-29026D02*
X-16093Y-31692D01*
X-17426Y-30359D01*
X-16093Y-29026D01*
X-18758Y-31692D01*
X-14760Y-29026D02*
X-12094Y-31692D01*
X-13427Y-30359D01*
X-12094Y-29026D01*
X-14760Y-31692D01*
D15*
X-71540Y81007D02*
X-72873D01*
X-72207D01*
Y77675D01*
X-72873Y77008D01*
X-73540D01*
X-74206Y77675D01*
X-70208Y80341D02*
X-69541Y81007D01*
X-68208D01*
X-67542Y80341D01*
Y79674D01*
X-68208Y79008D01*
X-68875D01*
X-68208D01*
X-67542Y78341D01*
Y77675D01*
X-68208Y77008D01*
X-69541D01*
X-70208Y77675D01*
X14500Y33000D02*
Y38998D01*
X16499Y36999D01*
X18499Y38998D01*
Y33000D01*
X20498D02*
X22497D01*
X21498D01*
Y36999D01*
X20498D01*
X29495D02*
X26496D01*
X25496Y35999D01*
Y34000D01*
X26496Y33000D01*
X29495D01*
X32494Y37998D02*
Y36999D01*
X31495D01*
X33494D01*
X32494D01*
Y34000D01*
X33494Y33000D01*
X37493D02*
X39492D01*
X40492Y34000D01*
Y35999D01*
X39492Y36999D01*
X37493D01*
X36493Y35999D01*
Y34000D01*
X37493Y33000D01*
X42491Y36999D02*
Y33000D01*
Y34999D01*
X43491Y35999D01*
X44490Y36999D01*
X45490D01*
X54487Y37998D02*
X55487Y38998D01*
X57486D01*
X58486Y37998D01*
Y36999D01*
X57486Y35999D01*
X56486D01*
X57486D01*
X58486Y34999D01*
Y34000D01*
X57486Y33000D01*
X55487D01*
X54487Y34000D01*
X60485Y37998D02*
X61485Y38998D01*
X63484D01*
X64484Y37998D01*
Y36999D01*
X63484Y35999D01*
X64484Y34999D01*
Y34000D01*
X63484Y33000D01*
X61485D01*
X60485Y34000D01*
Y34999D01*
X61485Y35999D01*
X60485Y36999D01*
Y37998D01*
X61485Y35999D02*
X63484D01*
X66483D02*
X70482D01*
X72481Y33000D02*
Y38998D01*
X75480D01*
X76480Y37998D01*
Y35999D01*
X75480Y34999D01*
X72481D01*
X78479Y33000D02*
X80479D01*
X79479D01*
Y36999D01*
X78479D01*
X83478Y33000D02*
Y36999D01*
X86477D01*
X87476Y35999D01*
Y33000D01*
X16008Y4899D02*
X12009D01*
X16008Y8897D01*
Y9897D01*
X15008Y10897D01*
X13009D01*
X12009Y9897D01*
X18007Y7898D02*
X22006D01*
X24005Y10897D02*
X28004D01*
Y9897D01*
X24005Y5898D01*
Y4899D01*
X34002Y10897D02*
X32003Y9897D01*
X30004Y7898D01*
Y5898D01*
X31003Y4899D01*
X33003D01*
X34002Y5898D01*
Y6898D01*
X33003Y7898D01*
X30004D01*
X36002Y10897D02*
X40000D01*
Y9897D01*
X36002Y5898D01*
Y4899D01*
X42000Y9897D02*
X42999Y10897D01*
X44999D01*
X45998Y9897D01*
Y5898D01*
X44999Y4899D01*
X42999D01*
X42000Y5898D01*
Y9897D01*
X47998D02*
X48997Y10897D01*
X50997D01*
X51996Y9897D01*
Y5898D01*
X50997Y4899D01*
X48997D01*
X47998Y5898D01*
Y9897D01*
X56995Y4899D02*
Y10897D01*
X53996Y7898D01*
X57995D01*
X59994D02*
X63993D01*
X69991Y4899D02*
X65992D01*
X69991Y8897D01*
Y9897D01*
X68991Y10897D01*
X66992D01*
X65992Y9897D01*
X-4000Y-603D02*
X-5999D01*
X-4999D01*
Y-5602D01*
X-5999Y-6601D01*
X-6999D01*
X-7998Y-5602D01*
X1998Y-6601D02*
X-2000D01*
X1998Y-2603D01*
Y-1603D01*
X999Y-603D01*
X-1001D01*
X-2000Y-1603D01*
M02*
