G04*
G04 #@! TF.GenerationSoftware,Altium Limited,Altium Designer,21.6.4 (81)*
G04*
G04 Layer_Color=8421504*
%FSLAX25Y25*%
%MOIN*%
G70*
G04*
G04 #@! TF.SameCoordinates,82D07BB3-39A6-4B9F-A2C0-6B90CFECE1EA*
G04*
G04*
G04 #@! TF.FilePolarity,Positive*
G04*
G01*
G75*
%ADD16R,0.01693X0.05000*%
D16*
X18500Y603D02*
D03*
X21000D02*
D03*
X23500D02*
D03*
X26000D02*
D03*
X28500D02*
D03*
X31000D02*
D03*
X33500D02*
D03*
X36000D02*
D03*
X38500D02*
D03*
X41000D02*
D03*
X43500D02*
D03*
X46000D02*
D03*
X48500D02*
D03*
X51000D02*
D03*
X53500D02*
D03*
X56000D02*
D03*
X58500D02*
D03*
X61000D02*
D03*
X63500D02*
D03*
X18500Y28398D02*
D03*
X21000D02*
D03*
X23500D02*
D03*
X26000D02*
D03*
X28500D02*
D03*
X31000D02*
D03*
X33500D02*
D03*
X36000D02*
D03*
X38500D02*
D03*
X41000D02*
D03*
X43500D02*
D03*
X46000D02*
D03*
X48500D02*
D03*
X51000D02*
D03*
X53500D02*
D03*
X56000D02*
D03*
X58500D02*
D03*
X61000D02*
D03*
X63500D02*
D03*
M02*
