G04*
G04 #@! TF.GenerationSoftware,Altium Limited,Altium Designer,21.6.4 (81)*
G04*
G04 Layer_Color=255*
%FSLAX25Y25*%
%MOIN*%
G70*
G04*
G04 #@! TF.SameCoordinates,82D07BB3-39A6-4B9F-A2C0-6B90CFECE1EA*
G04*
G04*
G04 #@! TF.FilePolarity,Positive*
G04*
G01*
G75*
%ADD16R,0.01693X0.05000*%
%ADD26R,0.12000X0.12000*%
%ADD27C,0.04016*%
%ADD28R,0.05500X0.05500*%
%ADD29C,0.05500*%
%ADD30C,0.09409*%
%ADD31C,0.05189*%
%ADD32C,0.25000*%
D16*
X18500Y603D02*
D03*
X21000D02*
D03*
X23500D02*
D03*
X26000D02*
D03*
X28500D02*
D03*
X31000D02*
D03*
X33500D02*
D03*
X36000D02*
D03*
X38500D02*
D03*
X41000D02*
D03*
X43500D02*
D03*
X46000D02*
D03*
X48500D02*
D03*
X51000D02*
D03*
X53500D02*
D03*
X56000D02*
D03*
X58500D02*
D03*
X61000D02*
D03*
X63500D02*
D03*
X18500Y28398D02*
D03*
X21000D02*
D03*
X23500D02*
D03*
X26000D02*
D03*
X28500D02*
D03*
X31000D02*
D03*
X33500D02*
D03*
X36000D02*
D03*
X38500D02*
D03*
X41000D02*
D03*
X43500D02*
D03*
X46000D02*
D03*
X48500D02*
D03*
X51000D02*
D03*
X53500D02*
D03*
X56000D02*
D03*
X58500D02*
D03*
X61000D02*
D03*
X63500D02*
D03*
D26*
X83626Y73008D02*
D03*
D27*
X3126Y-18492D02*
D03*
X75882D02*
D03*
D28*
X-63374Y55008D02*
D03*
D29*
X-53374Y45008D02*
D03*
Y55008D02*
D03*
X-63374Y45008D02*
D03*
X-53374Y35008D02*
D03*
X-63374D02*
D03*
X-53374Y25008D02*
D03*
X-63374D02*
D03*
X-53374Y15008D02*
D03*
X-63374D02*
D03*
X-53374Y5008D02*
D03*
X-63374D02*
D03*
X-53374Y-4992D02*
D03*
X-63374D02*
D03*
D30*
X-4000Y14500D02*
D03*
D31*
X21000D02*
D03*
X31000D02*
D03*
X41000D02*
D03*
X51000D02*
D03*
X61000D02*
D03*
D32*
X1205Y47362D02*
D03*
M02*
